<svg xmlns="http://www.w3.org/2000/svg" width="1180" height="980" viewBox="0 0 1180 980" role="img" aria-labelledby="title desc">
  <title id="title">OpenCode foundation team workflow</title>
  <desc id="desc">A six-step workflow showing Linear planning, Hive orchestration, Tilth-assisted foragers, Beads Village coordination, Beads tracking, review, sync, and compaction.</desc>
  <defs>
    <marker id="arrow" viewBox="0 0 10 10" refX="9" refY="5" markerWidth="7" markerHeight="7" orient="auto-start-reverse">
      <path d="M 0 0 L 10 5 L 0 10 z" fill="#8b5e34" />
    </marker>
    <style>
      .title { font: 700 24px sans-serif; fill: #1f2937; }
      .label { font: 700 21px sans-serif; }
      .sub { font: 400 18px sans-serif; }
      .small { font: 400 16px sans-serif; }
      .note { font: 600 16px sans-serif; fill: #374151; }
      .box { stroke-width: 2; }
      .arrow { fill: none; stroke: #8b5e34; stroke-width: 2.2; marker-end: url(#arrow); }
      .dashed { stroke-dasharray: 7 7; }
    </style>
  </defs>

  <rect x="0" y="0" width="1180" height="980" fill="#fcfcfb" />
  <text x="590" y="44" text-anchor="middle" class="title">Team workflow: 6-step continuous loop</text>

  <rect x="58" y="84" rx="18" ry="18" width="222" height="92" fill="#f9e8ee" stroke="#b45372" class="box" />
  <text x="169" y="120" text-anchor="middle" class="label" fill="#8f2d56">1. BA</text>
  <text x="169" y="152" text-anchor="middle" class="sub" fill="#8f2d56">Create epic (Linear)</text>

  <rect x="330" y="84" rx="18" ry="18" width="260" height="92" fill="#faece6" stroke="#bf6a30" class="box" />
  <text x="460" y="120" text-anchor="middle" class="label" fill="#9a4517">2. Lead</text>
  <text x="460" y="152" text-anchor="middle" class="sub" fill="#9a4517">Review + plan (Hive)</text>

  <rect x="636" y="94" rx="30" ry="30" width="138" height="72" fill="#f8efd8" stroke="#a96e19" class="box" />
  <text x="705" y="139" text-anchor="middle" class="label" fill="#8b5e12">Approve</text>

  <rect x="820" y="84" rx="18" ry="18" width="254" height="92" fill="#ecebff" stroke="#6366f1" class="box" />
  <text x="947" y="120" text-anchor="middle" class="label" fill="#4138c2">3. Execute</text>
  <text x="947" y="152" text-anchor="middle" class="sub" fill="#4138c2">Parallel (Hive)</text>

  <path class="arrow" d="M 280 130 L 330 130" />
  <path class="arrow" d="M 590 130 L 636 130" />
  <path class="arrow" d="M 774 130 L 820 130" />
  <path class="arrow" d="M 947 176 L 947 230" />

  <rect x="58" y="232" rx="22" ry="22" width="1022" height="192" fill="#dff0ea" fill-opacity="0.7" stroke="#0f8a74" stroke-width="2" stroke-dasharray="8 8" />
  <text x="569" y="290" text-anchor="middle" class="label" fill="#0d5d4f">Batch execution (parallel on git worktrees)</text>

  <rect x="94" y="315" rx="16" ry="16" width="290" height="84" fill="#e7efdd" stroke="#799b42" class="box" />
  <text x="239" y="351" text-anchor="middle" class="label" fill="#3d641d">Forager A (Tilth)</text>
  <text x="239" y="382" text-anchor="middle" class="sub" fill="#4f7a1b">worktree /wt-01</text>

  <rect x="445" y="315" rx="16" ry="16" width="290" height="84" fill="#e7efdd" stroke="#799b42" class="box" />
  <text x="590" y="351" text-anchor="middle" class="label" fill="#3d641d">Forager B (Tilth)</text>
  <text x="590" y="382" text-anchor="middle" class="sub" fill="#4f7a1b">worktree /wt-02</text>

  <rect x="794" y="315" rx="16" ry="16" width="290" height="84" fill="#e7efdd" stroke="#799b42" class="box" />
  <text x="939" y="351" text-anchor="middle" class="label" fill="#3d641d">Forager C (Tilth)</text>
  <text x="939" y="382" text-anchor="middle" class="sub" fill="#4f7a1b">worktree /wt-03</text>

  <path class="arrow" d="M 569 424 L 569 483" />
  <text x="620" y="456" class="note">context flows</text>

  <rect x="294" y="483" rx="18" ry="18" width="544" height="86" fill="#d7f1e9" stroke="#15947b" class="box" />
  <text x="566" y="521" text-anchor="middle" class="label" fill="#046c5a">4. Track + coordinate (Beads + Village)</text>
  <text x="566" y="552" text-anchor="middle" class="sub" fill="#046c5a">bd ready  -  bd claim  -  reserve / release  -  msg / inbox</text>

  <path class="arrow" d="M 566 569 L 566 610" />

  <rect x="206" y="610" rx="16" ry="16" width="344" height="76" fill="#f2efea" stroke="#7a7064" class="box" />
  <text x="378" y="646" text-anchor="middle" class="label" fill="#44403c">5. Review (Hygienic)</text>
  <text x="378" y="675" text-anchor="middle" class="sub" fill="#5b5752">Tilth callers  -  OKAY / REJECT</text>

  <rect x="582" y="610" rx="16" ry="16" width="340" height="76" fill="#f9e6ef" stroke="#cc5d82" class="box" />
  <text x="752" y="646" text-anchor="middle" class="label" fill="#9b2d55">5b. Sync Linear</text>
  <text x="752" y="675" text-anchor="middle" class="sub" fill="#af3e69">Auto-update issue  -  Done</text>

  <path class="arrow" d="M 550 648 L 582 648" />
  <path class="arrow" d="M 566 686 L 566 734" />

  <rect x="222" y="736" rx="16" ry="16" width="650" height="82" fill="#f7ecd8" stroke="#b3741f" class="box" />
  <text x="547" y="773" text-anchor="middle" class="label" fill="#865012">6. Compaction + next sprint (Beads)</text>
  <text x="547" y="803" text-anchor="middle" class="sub" fill="#9a5f17">Task summary  -  graph links preserved  -  bd ready for the next sprint</text>

  <path class="arrow dashed" d="M 1096 130 C 1138 130, 1138 778, 874 778" />
  <text x="1086" y="446" class="label" fill="#6b7280">Sprint</text>

  <rect x="58" y="856" rx="20" ry="20" width="1022" height="102" fill="#e8f0fb" stroke="#4f84d3" class="box" />
  <text x="569" y="896" text-anchor="middle" class="label" fill="#164f9c">Tool map</text>
  <text x="94" y="926" class="sub" fill="#334155">Tilth: scout and forager code perception, review impact analysis</text>
  <text x="94" y="958" class="sub" fill="#334155">Hive: plan, approve, parallel execution, context flow, audit trail</text>
  <text x="660" y="926" class="sub" fill="#334155">Beads: task graph, dependency tracking, atomic claim, compaction</text>
  <text x="660" y="958" class="sub" fill="#334155">Village + OpenCode: locking, mail, plugin + MCP runtime surface</text>
</svg>
